<?xml version="1.0" encoding="UTF-8" standalone="no"?>
<svg
   version="1.1"
   id="svg1"
   width="54.95813"
   height="26.943756"
   viewBox="0 0 54.95813 26.943756"
   xmlns:xlink="http://www.w3.org/1999/xlink"
   xmlns="http://www.w3.org/2000/svg"
   xmlns:svg="http://www.w3.org/2000/svg">
  <g
     id="layer-MC0"
     transform="translate(-377.14468,-373.53625)">
    <text
       id="text1"
       xml:space="preserve"
       transform="matrix(1.3333333,0,0,1.3333333,422.8548,400)"><tspan
         style="font-variant:normal;font-weight:700;font-stretch:normal;font-size:24px;font-family:'League Spartan';writing-mode:lr-tb;fill:#4e00ff;fill-opacity:1;fill-rule:nonzero;stroke:none"
         x="0"
         y="0"
         id="tspan1">.</tspan></text>
    <path
       id="path1"
       d="M 0,0 H -4.557 C -4.62,0 -4.676,-0.039 -4.699,-0.098 l -4.212,-10.956 c -0.05,-0.131 -0.235,-0.131 -0.285,-10e-4 l -4.212,10.957 C -13.431,-0.039 -13.488,0 -13.551,0 h -4.556 c -0.079,0 -0.145,-0.06 -0.152,-0.139 l -1.391,-15.508 c -0.007,-0.078 -0.073,-0.139 -0.152,-0.139 l -7.915,-0.009 c -0.084,0 -0.152,0.068 -0.152,0.152 v 3.679 c 0,0.085 0.068,0.153 0.152,0.153 h 6.223 c 0.085,0 0.153,0.068 0.153,0.152 v 3.656 c 0,0.084 -0.068,0.152 -0.153,0.152 h -6.223 c -0.084,0 -0.152,0.069 -0.152,0.153 v 3.631 c 0,0.084 0.068,0.152 0.152,0.152 h 6.512 c 0.084,0 0.152,0.069 0.152,0.153 v 3.655 c 0,0.084 -0.068,0.153 -0.152,0.153 h -11.024 c -0.085,0 -0.153,-0.069 -0.153,-0.153 v -19.497 c 0,-0.084 0.068,-0.152 0.152,-0.153 l 12.208,-0.042 -0.001,-0.003 h 4.372 c 0.08,0 0.146,0.061 0.152,0.141 l 0.925,11.596 h 0.12 l 4.021,-11.514 c 0.021,-0.062 0.079,-0.103 0.144,-0.103 h 2.472 c 0.064,0 0.122,0.041 0.144,0.103 l 4.02,11.514 h 0.12 l 0.925,-11.596 c 0.006,-0.08 0.072,-0.141 0.152,-0.141 h 4.205 c 0.089,0 0.159,0.077 0.151,0.166 L 0.152,-0.139 C 0.145,-0.06 0.079,0 0,0"
       style="fill:#FFF;fill-opacity:1;fill-rule:nonzero;stroke:none"
       transform="matrix(1.3333333,0,0,-1.3333333,420.32067,373.5976)"
       clip-path="url(#clipPath2)" />
  </g>
</svg>
